<svg width="7" height="10" viewBox="0 0 7 10" fill="none" xmlns="http://www.w3.org/2000/svg">
<path d="M5.95483 4.99913C5.95483 5.35169 5.91045 5.69112 5.82924 6.00743L5.44492 5.49859C5.47007 5.33419 5.48272 5.16687 5.48269 4.99913V4.37402C5.48269 4.29112 5.50756 4.21162 5.55183 4.15301C5.59611 4.09439 5.65615 4.06146 5.71876 4.06146C5.78137 4.06146 5.84142 4.09439 5.88569 4.15301C5.92996 4.21162 5.95483 4.29112 5.95483 4.37402V4.99913ZM3.59412 7.49956C3.98033 7.49956 4.33916 7.34641 4.6385 7.08262L4.9775 7.53207C4.64046 7.85566 4.2445 8.05479 3.83019 8.10905V9.37489H5.24662C5.30923 9.37489 5.36927 9.40782 5.41355 9.46644C5.45782 9.52505 5.48269 9.60455 5.48269 9.68745C5.48269 9.77034 5.45782 9.84984 5.41355 9.90845C5.36927 9.96707 5.30923 10 5.24662 10H1.94161C1.879 10 1.81896 9.96707 1.77469 9.90845C1.73041 9.84984 1.70554 9.77034 1.70554 9.68745C1.70554 9.60455 1.73041 9.52505 1.77469 9.46644C1.81896 9.40782 1.879 9.37489 1.94161 9.37489H3.35804V8.10905C2.77574 8.03156 2.23594 7.67047 1.84335 7.09583C1.45077 6.52119 1.23339 5.77397 1.2334 4.99913V4.37402C1.2334 4.29112 1.25827 4.21162 1.30254 4.15301C1.34681 4.09439 1.40686 4.06146 1.46947 4.06146C1.53208 4.06146 1.59213 4.09439 1.6364 4.15301C1.68067 4.21162 1.70554 4.29112 1.70554 4.37402V4.99913C1.70554 5.66228 1.90452 6.29828 2.25869 6.7672C2.61287 7.23612 3.09324 7.49956 3.59412 7.49956ZM5.01055 1.87358V4.92349L4.5384 4.29838V1.87358C4.53949 1.54744 4.44428 1.23364 4.27307 0.999136C4.10187 0.764634 3.86822 0.627995 3.62199 0.618371C3.37576 0.608747 3.13644 0.726899 2.95508 0.94762C2.77372 1.16834 2.66469 1.47416 2.65125 1.79982L2.25228 1.2716C2.36038 0.851052 2.57769 0.494938 2.86552 0.266654C3.15336 0.0383695 3.49304 -0.0472692 3.8241 0.0249833C4.15516 0.0972357 4.45611 0.32269 4.67338 0.661211C4.89064 0.999731 5.01012 1.42935 5.01055 1.87358Z" fill="#F40000"/>
<path d="M4.29536 6.62878L3.94219 6.1612C3.79895 6.23649 3.64397 6.26422 3.49078 6.24197C3.33758 6.21972 3.19083 6.14816 3.06332 6.03355C2.93582 5.91893 2.83144 5.76474 2.7593 5.58443C2.68716 5.40412 2.64945 5.20317 2.64946 4.99912V4.45028L2.17732 3.82517V4.99912C2.17725 5.3275 2.2423 5.65015 2.36598 5.9348C2.48965 6.21944 2.66761 6.4561 2.88206 6.62109C3.0965 6.78609 3.33991 6.87364 3.58793 6.87499C3.83595 6.87634 4.0799 6.79144 4.29536 6.62878ZM0.59375 0.844646L6.25947 8.34596L6.59375 7.90338L0.928028 0.402069L0.59375 0.844646Z" fill="#F40000"/>
</svg>
