<svg width="16" height="13" viewBox="0 0 16 13" fill="none" xmlns="http://www.w3.org/2000/svg">
<path fill-rule="evenodd" clip-rule="evenodd" d="M4.09375 5.10001C4.57114 5.10001 5.02898 4.91036 5.36655 4.5728C5.70411 4.23523 5.89375 3.7774 5.89375 3.30001C5.89375 2.82262 5.70411 2.36478 5.36655 2.02721C5.02898 1.68965 4.57114 1.50001 4.09375 1.50001C3.61636 1.50001 3.15853 1.68965 2.82096 2.02721C2.4834 2.36478 2.29375 2.82262 2.29375 3.30001C2.29375 3.7774 2.4834 4.23523 2.82096 4.5728C3.15853 4.91036 3.61636 5.10001 4.09375 5.10001ZM4.09375 6.00001C4.44832 6.00001 4.79942 5.93017 5.127 5.79448C5.45458 5.65879 5.75222 5.45991 6.00294 5.2092C6.25366 4.95848 6.45254 4.66083 6.58823 4.33325C6.72392 4.00567 6.79375 3.65458 6.79375 3.30001C6.79375 2.94544 6.72392 2.59434 6.58823 2.26676C6.45254 1.93918 6.25366 1.64154 6.00294 1.39082C5.75222 1.1401 5.45458 0.941219 5.127 0.805532C4.79942 0.669844 4.44832 0.600006 4.09375 0.600006C3.37767 0.600006 2.69091 0.88447 2.18456 1.39082C1.67822 1.89717 1.39375 2.58392 1.39375 3.30001C1.39375 4.01609 1.67822 4.70285 2.18456 5.2092C2.69091 5.71554 3.37767 6.00001 4.09375 6.00001Z" fill="#0F2755"/>
<path fill-rule="evenodd" clip-rule="evenodd" d="M3.06236 5.00641C3.10426 5.04821 3.13751 5.09787 3.1602 5.15254C3.18288 5.20721 3.19456 5.26582 3.19456 5.32501C3.19456 5.3842 3.18288 5.44281 3.1602 5.49748C3.13751 5.55215 3.10426 5.60181 3.06236 5.64361L2.75816 5.94691C2.17274 6.53249 1.84383 7.32659 1.84376 8.15461V9.82501C1.84376 9.94435 1.79635 10.0588 1.71195 10.1432C1.62756 10.2276 1.5131 10.275 1.39376 10.275C1.27441 10.275 1.15995 10.2276 1.07556 10.1432C0.991167 10.0588 0.943756 9.94435 0.943756 9.82501V8.15461C0.943884 7.08791 1.36764 6.06493 2.12186 5.31061L2.42516 5.00641C2.46696 4.9645 2.51662 4.93125 2.57129 4.90857C2.62596 4.88588 2.68457 4.8742 2.74376 4.8742C2.80295 4.8742 2.86156 4.88588 2.91623 4.90857C2.9709 4.93125 3.02056 4.9645 3.06236 5.00641ZM13.6752 4.73641C13.6332 4.77821 13.6 4.82787 13.5773 4.88254C13.5546 4.93721 13.543 4.99582 13.543 5.05501C13.543 5.1142 13.5546 5.17281 13.5773 5.22748C13.6 5.28215 13.6332 5.33181 13.6752 5.37361L13.9794 5.67691C14.2693 5.96683 14.4992 6.31102 14.6561 6.68981C14.813 7.06861 14.8938 7.4746 14.8938 7.88461V9.82501C14.8938 9.94435 14.9412 10.0588 15.0256 10.1432C15.11 10.2276 15.2244 10.275 15.3438 10.275C15.4631 10.275 15.5776 10.2276 15.662 10.1432C15.7463 10.0588 15.7938 9.94435 15.7938 9.82501V7.88461C15.7936 6.81791 15.3699 5.79493 14.6157 5.04061L14.3124 4.73641C14.2706 4.6945 14.2209 4.66125 14.1662 4.63857C14.1116 4.61588 14.0529 4.6042 13.9938 4.6042C13.9346 4.6042 13.876 4.61588 13.8213 4.63857C13.7666 4.66125 13.717 4.6945 13.6752 4.73641Z" fill="#0F2755"/>
<path fill-rule="evenodd" clip-rule="evenodd" d="M12.1938 5.10001C11.7164 5.10001 11.2585 4.91036 10.921 4.5728C10.5834 4.23523 10.3938 3.7774 10.3938 3.30001C10.3938 2.82262 10.5834 2.36478 10.921 2.02721C11.2585 1.68965 11.7164 1.50001 12.1938 1.50001C12.6711 1.50001 13.129 1.68965 13.4666 2.02721C13.8041 2.36478 13.9938 2.82262 13.9938 3.30001C13.9938 3.7774 13.8041 4.23523 13.4666 4.5728C13.129 4.91036 12.6711 5.10001 12.1938 5.10001ZM12.1938 6.00001C11.8392 6.00001 11.4881 5.93017 11.1605 5.79448C10.8329 5.65879 10.5353 5.45991 10.2846 5.2092C10.0339 4.95848 9.83497 4.66083 9.69928 4.33325C9.5636 4.00567 9.49376 3.65458 9.49376 3.30001C9.49376 2.94544 9.5636 2.59434 9.69928 2.26676C9.83497 1.93918 10.0339 1.64154 10.2846 1.39082C10.5353 1.1401 10.8329 0.941219 11.1605 0.805532C11.4881 0.669844 11.8392 0.600006 12.1938 0.600006C12.9098 0.600006 13.5966 0.88447 14.1029 1.39082C14.6093 1.89717 14.8938 2.58392 14.8938 3.30001C14.8938 4.01609 14.6093 4.70285 14.1029 5.2092C13.5966 5.71554 12.9098 6.00001 12.1938 6.00001ZM8.14376 8.92501C7.54702 8.92501 6.97473 9.16206 6.55277 9.58402C6.13081 10.006 5.89376 10.5783 5.89376 11.175V12.345C5.89376 12.4644 5.84635 12.5788 5.76196 12.6632C5.67757 12.7476 5.56311 12.795 5.44376 12.795C5.32441 12.795 5.20995 12.7476 5.12556 12.6632C5.04117 12.5788 4.99376 12.4644 4.99376 12.345V11.175C4.99376 10.3396 5.32563 9.53836 5.91637 8.94762C6.50711 8.35688 7.30833 8.02501 8.14376 8.02501C8.97919 8.02501 9.78041 8.35688 10.3711 8.94762C10.9619 9.53836 11.2938 10.3396 11.2938 11.175V12.345C11.2938 12.4644 11.2463 12.5788 11.162 12.6632C11.0776 12.7476 10.9631 12.795 10.8438 12.795C10.7244 12.795 10.61 12.7476 10.5256 12.6632C10.4412 12.5788 10.3938 12.4644 10.3938 12.345V11.175C10.3938 10.8795 10.3356 10.587 10.2225 10.314C10.1094 10.041 9.94368 9.79295 9.73475 9.58402C9.52582 9.37508 9.27778 9.20935 9.0048 9.09628C8.73181 8.9832 8.43923 8.92501 8.14376 8.92501Z" fill="#0F2755"/>
<path fill-rule="evenodd" clip-rule="evenodd" d="M8.14376 7.57501C8.62115 7.57501 9.07898 7.38537 9.41655 7.0478C9.75411 6.71024 9.94376 6.2524 9.94376 5.77501C9.94376 5.29762 9.75411 4.83979 9.41655 4.50222C9.07898 4.16465 8.62115 3.97501 8.14376 3.97501C7.66637 3.97501 7.20853 4.16465 6.87096 4.50222C6.5334 4.83979 6.34376 5.29762 6.34376 5.77501C6.34376 6.2524 6.5334 6.71024 6.87096 7.0478C7.20853 7.38537 7.66637 7.57501 8.14376 7.57501ZM8.14376 8.47501C8.85984 8.47501 9.5466 8.19055 10.0529 7.6842C10.5593 7.17785 10.8438 6.4911 10.8438 5.77501C10.8438 5.05893 10.5593 4.37217 10.0529 3.86582C9.5466 3.35948 8.85984 3.07501 8.14376 3.07501C7.42767 3.07501 6.74092 3.35948 6.23457 3.86582C5.72822 4.37217 5.44376 5.05893 5.44376 5.77501C5.44376 6.4911 5.72822 7.17785 6.23457 7.6842C6.74092 8.19055 7.42767 8.47501 8.14376 8.47501Z" fill="#0F2755"/>
</svg>
